<svg xmlns="http://www.w3.org/2000/svg" xmlns:svg="http://www.w3.org/2000/svg" id="svg2652" width="1024" height="731" version="1.0" viewBox="0 0 1024 732" xml:space="preserve" style="fill-rule:evenodd"><metadata id="metadata1299"/><defs id="defs2654"><style id="style2656" type="text/css"/></defs><g id="g2065" transform="matrix(0.55471496,0,0,0.55402628,250.87598,246.90798)" style="stroke-width:1.80385"><path id="path2659" d="m 564,54 c 13,-2 26,-1 38,6 38,-7 66,-1 83,18 14,-3 29,1 43,11 39,17 67,39 89,64 36,15 50,33 52,53 19,14 31,31 39,50 L 798,413 455,370 352,209 Z" style="fill:#ffffd7;fill-opacity:1;stroke-width:1.80385"/><path id="path2661" d="m 573,52 -15,38 c -64,5 -78,25 -58,57 12,14 -10,26 -16,42 -6,20 -13,41 -23,62 0,54 -31,50 -28,69 l 22,29 -191,199 C 169,563 118,555 104,528 75,518 57,486 51,432 36,416 35,401 40,385 c -2,-6 -3,-12 1,-18 -8,-26 -4,-40 1,-53 2,-20 12,-37 27,-52 -1,-25 14,-38 34,-46 16,-51 88,-86 117,-94 19,-17 45,-27 77,-31 16,-7 31,-12 46,-14 28,-18 60,-21 92,-21 26,-9 53,-12 81,-6 z" style="fill:#dfeff7;fill-opacity:1;stroke-width:1.80385"/><path id="path2663" d="m 518,579 c 7,28 20,47 41,55 30,14 53,48 77,78 13,-7 27,-13 38,-23 L 560,553 Z" style="fill:#fff;stroke:#000;stroke-width:3.6077"/><path id="path2665" d="m 551,571 c 0,6 1,12 7,18 2,34 15,45 33,45 80,51 141,54 187,24 19,-11 49,-22 51,-33 22,-11 35,-22 47,-33 19,-16 19,-44 11,-79 -190,-6 -286,19 -336,58 z" style="fill:#fff;stroke:#000;stroke-width:3.6077"/><path id="path2667" d="m 564,312 266,42 c 39,46 78,92 116,138 -28,27 -66,31 -107,25 -17,9 -43,14 -82,0 -15,9 -30,15 -45,20 -24,13 -49,17 -75,17 -24,4 -45,7 -54,0 -15,12 -28,17 -39,20 -17,10 -31,13 -45,16 -12,29 -41,41 -81,41 -27,12 -54,13 -82,-12 -20,-10 -39,-22 -49,-46 -7,-8 -13,-15 -19,-23 -3,-28 4,-53 25,-74 20,-11 23,-40 35,-60 23,-27 60,-38 99,-46 17,-17 37,-29 67,-27 17,-17 37,-32 70,-31 z" style="fill:#daeace;fill-opacity:1;stroke-width:1.80385"/><path id="path2669" d="m 906,255 c -29,26 -48,42 -73,72 -7,25 -3,50 7,75 -5,27 9,48 25,69 32,7 48,11 83,22 10,-12 18,-28 26,-56 7,-11 6,-29 3,-46 6,-24 -5,-33 -20,-50 -4,-15 -9,-34 -27,-49 1,-10 -4,-26 -24,-37 z" style="fill:#ffd3dd;fill-opacity:1;stroke-width:1.80385"/><path id="path2671" d="m 436,56 c -31,-2 -66,4 -96,21 -15,1 -31,9 -44,15 -29,2 -54,12 -76,29 -19,6 -39,13 -56,28 -32,19 -53,41 -63,68 -21,7 -32,23 -32,45 -15,13 -25,30 -27,52 -8,17 -7,34 -2,51 -1,6 -5,13 0,19 -5,11 -3,22 2,33 3,0 4,13 8,15 2,29 9,48 18,62 10,16 20,30 36,34 16,32 82,30 162,19 7,11 14,19 21,27 11,23 29,37 51,46 18,16 40,27 81,11 39,-2 70,-11 80,-41 10,-1 23,-6 44,-16 15,-3 27,-11 38,-20 11,8 34,4 57,0 36,-2 61,-7 73,-17 17,-5 34,-10 47,-20 30,10 58,14 81,0 67,7 120,-7 134,-79 11,-12 8,-30 3,-48 11,-18 -4,-33 -19,-49 -2,-21 -12,-36 -27,-49 2,-14 -3,-26 -23,-36 -8,-24 -22,-39 -39,-50 0,-25 -21,-41 -52,-53 C 792,124 762,103 727,88 713,77 699,76 685,78 669,58 641,53 603,60 593,53 582,53 572,53 549,51 529,50 512,50 483,44 459,48 436,56 Z" style="fill:none;stroke:#000;stroke-width:7.21539"/><path id="path2673" d="m 149,168 c -11,10 -11,17 -4,21" style="fill:none;stroke:#000;stroke-width:3.6077"/><path id="path2675" d="m 178,155 c 49,-34 85,-37 110,-20" style="fill:none;stroke:#000;stroke-width:3.6077"/><path id="path2677" d="m 254,184 c 19,-14 27,-41 42,-60 20,-30 58,-5 82,-7" style="fill:none;stroke:#000;stroke-width:3.6077"/><path id="path2679" d="m 129,215 c -12,14 3,26 3,39" style="fill:none;stroke:#000;stroke-width:3.6077"/><path id="path2681" d="m 91,256 c 17,-9 13,-29 29,-43 11,-14 47,-15 60,-34 14,-21 32,-28 53,-24" style="fill:none;stroke:#000;stroke-width:3.6077"/><path id="path2683" d="m 217,174 c 11,-11 19,-22 26,-33" style="fill:none;stroke:#000;stroke-width:3.6077"/><path id="path2685" d="m 285,176 c 11,-8 16,-18 15,-29" style="fill:none;stroke:#000;stroke-width:3.6077"/><path id="path2687" d="m 274,108 c 8,3 19,1 36,-11" style="fill:none;stroke:#000;stroke-width:3.6077"/><path id="path2689" d="m 297,93 c -4,5 -7,10 -7,14" style="fill:none;stroke:#000;stroke-width:3.6077"/><path id="path2691" d="m 341,77 c 2,4 5.84515,7 8.84515,7" style="fill:none;stroke:#000;stroke-width:3.6077"/><path id="path2693" d="m 369,65 c -4,5 -7,9 -9,13" style="fill:none;stroke:#000;stroke-width:3.6077"/><path id="path2695" d="m 457,64 c -8,1 -16,-1 -24,-8" style="fill:none;stroke:#000;stroke-width:3.6077"/><path id="path2697" d="m 471,124 c -10,-2 -18,-6 -14,-29 1,-20 -15,-26 -43,-24 -26,2 -50,4 -61,10 -9,9 -19,18 -31,28" style="fill:none;stroke:#000;stroke-width:3.6077"/><path id="path2699" d="m 357,89 c -7,7 -8.73987,15.78038 -6.73987,23.78038" style="fill:none;stroke:#000;stroke-width:3.6077"/><path id="path2701" d="m 431,82 c -10,17 -24,32 -34,41 -21,22 -33.94356,46.84515 -11.94356,72.84515" style="fill:none;stroke:#000;stroke-width:3.6077"/><path id="path2703" d="M 373.05644,169 C 362.05644,170 353,163 346,153 341,143 327,143 321,124" style="fill:none;stroke:#000;stroke-width:3.6077"/><path id="path2705" d="m 454,129 c -49,2 -48,33 -72,44" style="fill:none;stroke:#000;stroke-width:3.6077"/><path id="path2707" d="M 486,180.081 C 490.26013,161.73987 479,156 454,157 c -12,1 -24,1 -33,-4" style="fill:none;stroke:#000;stroke-width:3.6077"/><path id="path2709" d="m 461,182 c -26,9 -51,12 -77,14 -12,-1 -29,44.17828 -31,57.17828" style="fill:none;stroke:#000;stroke-width:3.6077"/><path id="path2711" d="m 48,324 c 7,-11 14,-17 23,-20" style="fill:none;stroke:#000;stroke-width:3.6077"/><path id="path2713" d="m 71,311 c -4,-17 27,-22 36,-32 6,-5 15.11885,-27.43238 46.11885,-34.43238 C 170.80533,227.58402 172.44877,207.5246 200,206 c 8,-9 24.05644,-13 41.05644,-14" style="fill:none;stroke:#000;stroke-width:3.6077"/><path id="path2715" d="m 211,167 c -9,12 -16,27 -6,34" style="fill:none;stroke:#000;stroke-width:3.6077"/><path id="path2719" d="m 199,257 c -7,11 -12.95777,21.31456 -7.95777,36.31456" style="fill:none;stroke:#000;stroke-width:3.6077"/><path id="path2721" d="m 175,292 c 18,5 28,23 41,28" style="fill:none;stroke:#000;stroke-width:3.6077"/><path id="path2723" d="M 187.87705,281.95791 C 181.87705,271.95791 169,267 157,276 c -17,10 -33,21 -50,31 -16,14 -20.788713,28.84515 -13.788713,42.84515" style="fill:none;stroke:#000;stroke-width:3.6077"/><path id="path2725" d="M 49,352 C 62,337 76,330 90,331" style="fill:none;stroke:#000;stroke-width:3.6077"/><path id="path2727" d="m 71,335 c -3,-3 -8,-4 -14,-5" style="fill:none;stroke:#000;stroke-width:3.6077"/><path id="path2729" d="m 103,319 c 24,-13 36,-10 40,3 10,54 23.13862,61.13862 38.13862,75.13862" style="fill:none;stroke:#000;stroke-width:3.6077"/><path id="path2731" d="m 156,299 c -4,4 -10,10 -16,17" style="fill:none;stroke:#000;stroke-width:3.6077"/><path id="path2735" d="m 222.13525,265.34015 c 29,-1 40.88115,-13.53482 52.86475,-2.34015 1,11 -6,22 -5,34" style="fill:none;stroke:#000;stroke-width:3.6077"/><path id="path2737" d="m 350,392.00822 c 25,-24 54.41598,-53.55123 37.41598,-91.55123 -6,-19 -27.41598,-29.44877 -34.41598,-47.44877 -31,0 -58,5 -78,15" style="fill:none;stroke:#000;stroke-width:3.6077"/><path id="path2739" d="m 323,276 c -15,14 -38.7623,23.68648 -45,48 1,47 18,57 29,68 4,3 8,15 18,27" style="fill:none;stroke:#000;stroke-width:3.6077"/><path id="path2741" d="m 256,149 c -5,19 -26,39 -7,61 7,-5 26,-5 35,-7 16,-10 59,7 76,-5" style="fill:none;stroke:#000;stroke-width:3.6077"/><path id="path2743" d="m 442.00822,266.99726 c 8,-30 -7,-48 -36,-57" style="fill:none;stroke:#000;stroke-width:3.6077"/><path id="path2745" d="m 453,346 c -14,-2 -44,-23 -40,-44 -3,-25 -18,-34 -19,-44 -2,-5 5,-17 -1,-24" style="fill:none;stroke:#000;stroke-width:3.6077"/><path id="path2747" d="m 308,393 c 8,-13 8,-25 -12,-39" style="fill:none;stroke:#000;stroke-width:3.6077"/><path id="path2751" d="m 278,324 c -16,-5 -29,-12 -34,-2 -5,4 -19,10 -15,28 -1,8 -30,12 -41,17" style="fill:none;stroke:#000;stroke-width:3.6077"/><path id="path2753" d="m 209,369 c -9,7 -6,21 -10,31 2,21 26,25 51,28" style="fill:none;stroke:#000;stroke-width:3.6077"/><path id="path2755" d="m 96,366 c 6,6 17,11 41,14 10,2 9,9 32,16 9,1 20,2 30,4" style="fill:none;stroke:#000;stroke-width:3.6077"/><path id="path2757" d="m 111,336 c -6,6 -19,11 -20,19 -2,8 -8,16 -13,24 -8,15 -13,27 -12,37 1,21 24,32 36,45" style="fill:none;stroke:#000;stroke-width:3.6077"/><path id="path2759" d="m 47,371 c -3,-2 -5,-4 -7,-6" style="fill:none;stroke:#000;stroke-width:3.6077"/><path id="path2761" d="m 70,362 c -7,7 -14,14 -19,23 -4,11 -3,20 -5,39" style="fill:none;stroke:#000;stroke-width:3.6077"/><path id="path2763" d="M 50.739874,385.43924 C 50.739874,382.43924 49,382 47,380" style="fill:none;stroke:#000;stroke-width:3.6077"/><path id="path2765" d="m 51,432 c 2,-6 11,-12 6,-19" style="fill:none;stroke:#000;stroke-width:3.6077"/><path id="path2767" d="m 70,495 c 2,-4 1,-9 3,-11" style="fill:none;stroke:#000;stroke-width:3.6077"/><path id="path2769" d="m 104,528 c 6,-10 7,-16 3,-17" style="fill:none;stroke:#000;stroke-width:3.6077"/><path id="path2771" d="m 114,515 -6.0405,-3.52025" style="fill:none;stroke:#000;stroke-width:3.6077"/><path id="path2773" d="m 87,449 c -10,20 1,34 28,43" style="fill:none;stroke:#000;stroke-width:3.6077"/><path id="path2775" d="m 84,394 c 22,12 45,37 65,44 22,8 53.21962,36 72.21962,23" style="fill:none;stroke:#000;stroke-width:3.6077"/><path id="path2777" d="m 250,446 c -15,3 -33,15 -33,23 1,14 47.34113,23.47975 65.34113,19.47975" style="fill:none;stroke:#000;stroke-width:3.6077"/><path id="path2779" d="m 104,471 c 7,6 17,8 36,-1 20,-6 28.26772,1 42.26772,5" style="fill:none;stroke:#000;stroke-width:3.6077"/><path id="path2781" d="m 219,473 c -24,-2 -36,-1 -44,7 -14,9 -28,7 -33,8 -6,2 -23,19 -47,7" style="fill:none;stroke:#000;stroke-width:3.6077"/><path id="path2783" d="m 154,547 c 33,2 68,1 104,-4" style="fill:none;stroke:#000;stroke-width:3.6077"/><path id="path2785" d="m 192,507 c -8,-2 -12,-6 -12,-13 -1,14 -9,17 -15,23 -7,5 -6,13 -12,20" style="fill:none;stroke:#000;stroke-width:3.6077"/><path id="path2787" d="m 228,488 c -20,0 -39,-1 -53,-8" style="fill:none;stroke:#000;stroke-width:3.6077"/><path id="path2789" d="m 217,488 c 3,17 26,19 38,25" style="fill:none;stroke:#000;stroke-width:3.6077"/><path id="path2791" d="m 209,503 c 2,-4 8,-4 12,-7" style="fill:none;stroke:#000;stroke-width:3.6077"/><path id="path2793" d="m 237,500 c 5,-4 11.78038,-7.0405 15.78038,-12.0405" style="fill:none;stroke:#000;stroke-width:3.6077"/><path id="path2795" d="m 266,501 c -9,-15 19,-20 26,-36" style="fill:none;stroke:#000;stroke-width:3.6077"/><path id="path2797" d="m 264,406 c 16,13 30.67599,17.39875 44.67599,21.39875" style="fill:none;stroke:#000;stroke-width:3.6077"/><path id="path2799" d="m 249,468 c 29,0 55,-19 60,-41 1,-2 8,-3 12,-4" style="fill:none;stroke:#000;stroke-width:3.6077"/><path id="path2801" d="m 498,63 c 5,-5 12,-10 23,-13" style="fill:none;stroke:#000;stroke-width:3.6077"/><path id="path2803" d="m 516,73 c -26,0 -48,4 -59,23" style="fill:none;stroke:#000;stroke-width:3.6077"/><path id="path2805" d="m 489,91 c 6,4 9.73987,9.30063 9.73987,14.30063" style="fill:none;stroke:#000;stroke-width:3.6077"/><path id="path2807" d="m 776,364 c 4,-46 -85,-59 -129,17 -6,16 -60,10 -88,18 -25,10 -50,24 -75,39 -10,16 -45,-10 -65,-8 -65,7 -66,104 -2,120" style="fill:none;stroke:#000;stroke-width:3.6077"/><path id="path2809" d="m 536,327 c 1,20 -21,59 12,77" style="fill:none;stroke:#000;stroke-width:3.6077"/><path id="path2811" d="m 475,369 c 11,-4 14,-21 21,-30" style="fill:none;stroke:#000;stroke-width:3.6077"/><path id="path2813" d="m 453,394 c -5,11 1,15 12,16" style="fill:none;stroke:#000;stroke-width:3.6077"/><path id="path2815" d="m 495,581 c 39,-35 33,-98 -28,-94 -21,2 -37.94164,24.18303 -47.94164,14.18303" style="fill:none;stroke:#000;stroke-width:3.6077"/><path id="path2819" d="m 546,492 c -13,4 -23,10 -30,18" style="fill:none;stroke:#000;stroke-width:3.6077"/><path id="path2821" d="M 472.16188,522.83812 C 460.16188,540.83812 426,565 417,575 c -10,15 -15,46 -72,29" style="fill:none;stroke:#000;stroke-width:3.6077"/><path id="path2823" d="m 494,591 c -28,16 -73,2 -79,9" style="fill:none;stroke:#000;stroke-width:3.6077"/><path id="path2825" d="m 567,452 c -10,-3 -16,-17 -21,-24" style="fill:none;stroke:#000;stroke-width:3.6077"/><path id="path2827" d="m 392,411 c 22,12 41,9 60,-6" style="fill:none;stroke:#000;stroke-width:3.6077"/><path id="path2829" d="m 418,418 c -8,12 -17,17 -28,16 -12,-2 -29,11 -49,27 -16,13 -22,27 -26,42 -3,18 -6,26 -10,33" style="fill:none;stroke:#000;stroke-width:3.6077"/><path id="path2831" d="m 327,442 c -2,12 2,20 10,23" style="fill:none;stroke:#000;stroke-width:3.6077"/><path id="path2833" d="m 314,587 c -10,-3 -22,-13 -30,-16" style="fill:none;stroke:#000;stroke-width:3.6077"/><path id="path2835" d="m 356,542 c -38,18 -46,46 -17,79" style="fill:none;stroke:#000;stroke-width:3.6077"/><path id="path2837" d="m 333,503 c -2,13 7,22 16,30 8,4 8,15 10,18 12,17 14,28 15,38" style="fill:none;stroke:#000;stroke-width:3.6077"/><path id="path2839" d="m 611,358 c 14,-16 39,-3 58,-5" style="fill:none;stroke:#000;stroke-width:3.6077"/><path id="path2841" d="m 562,373 c 13.94164,-13.64059 19.42706,-27.126 8.87401,-46.33953" style="fill:none;stroke:#000;stroke-width:3.6077"/><path id="path2843" d="m 586,365 c -4,-3 -8,-6 -11,-10" style="fill:none;stroke:#000;stroke-width:3.6077"/><path id="path2845" d="m 581,554 c -4,-10 -7.86475,-9.0164 2.13525,-18.0164" style="fill:none;stroke:#000;stroke-width:3.6077"/><path id="path2847" d="m 562,548 c 3,-5 11.9595,-5.73987 17.9595,-8.73987" style="fill:none;stroke:#000;stroke-width:3.6077"/><path id="path2849" d="m 639,509 c -3,19 10,28 38,29" style="fill:none;stroke:#000;stroke-width:3.6077"/><path id="path2851" d="m 630,540 c 5,-20 -8,-39 -34,-58" style="fill:none;stroke:#000;stroke-width:3.6077"/><path id="path2853" d="m 631,528 c 3,-2 6,-4 9,-6" style="fill:none;stroke:#000;stroke-width:3.6077"/><path id="path2855" d="m 656,442 c -3,-14 -21,-28 -13,-56" style="fill:none;stroke:#000;stroke-width:3.6077"/><path id="path2857" d="m 612,480 c 12,12 36.68648,1.11885 58.68648,1.11885 C 724.68648,479.11885 738,504 712,536" style="fill:none;stroke:#000;stroke-width:3.6077"/><path id="path2859" d="m 724,512 c 26,-1 44,-11 55,-32" style="fill:none;stroke:#000;stroke-width:3.6077"/><path id="path2861" d="m 758,518 -9,-10" style="fill:none;stroke:#000;stroke-width:3.6077"/><path id="path2863" d="m 798,506 c 16,0 30,3 41,12" style="fill:none;stroke:#000;stroke-width:3.6077"/><path id="path2865" d="m 830,500 c -5,3 -11.0405,5.26013 -16.0405,7.26013" style="fill:none;stroke:#000;stroke-width:3.6077"/><path id="path2867" d="m 856,507 c -3,-17 8,-25 9,-35" style="fill:none;stroke:#000;stroke-width:3.6077"/><path id="path2869" d="m 675,403 c 8,7 18,13 16,21 3,17 24,19 36,21 24,10 46,21 33,41" style="fill:none;stroke:#000;stroke-width:3.6077"/><path id="path2871" d="m 549,310 c -13,-4 -26.0405,-14.081 -38.0405,-28.081" style="fill:none;stroke:#000;stroke-width:3.6077"/><path id="path2873" d="m 588,152 c -9,6 -19,18 -33,27 -14,8 -29,15 -36,40 -2,22 0,37 -5,51 -4,13 -6,25 0,34" style="fill:none;stroke:#000;stroke-width:3.6077"/><path id="path2875" d="m 524,140 c 33,8 44,18.52025 41,31.52025" style="fill:none;stroke:#000;stroke-width:3.6077"/><path id="path2877" d="m 727,434 c 6,-10 6,-19 6,-29 10,-16 64,6 71,-39" style="fill:none;stroke:#000;stroke-width:3.6077"/><path id="path2879" d="m 728,364 c 5,11 6,25 5,41" style="fill:none;stroke:#000;stroke-width:3.6077"/><path id="path2883" d="m 791,478 c 16,-24 16,-58.6903 45,-68.6903" style="fill:none;stroke:#000;stroke-width:3.6077"/><path id="path2885" d="M 752.73987,458.0405 C 754.73987,452.0405 758,446 761,442" style="fill:none;stroke:#000;stroke-width:3.6077"/><path id="path2887" d="m 803,329 c -7,-4 -10,-11 -7,-23" style="fill:none;stroke:#000;stroke-width:3.6077"/><path id="path2889" d="m 773,346 c 8,-5 15,-15 22,-28" style="fill:none;stroke:#000;stroke-width:3.6077"/><path id="path2891" d="m 815,269 c 1,25 22.2427,28.69894 18.2427,56.69894" style="fill:none;stroke:#000;stroke-width:3.6077"/><path id="path2893" d="m 762,322 c 1,-27 15,-43 32,-57 10,-11 22,-17 15,-52 4,-21 29,-44 7,-59 -26,-12 -48,-36 -88,-37" style="fill:none;stroke:#000;stroke-width:3.6077"/><path id="path2895" d="m 546,288 c 12,-21 47,-33 50,-41 8,-21 2,-42 3,-62 6,-17 22,-24 40,-29 28,-32 59.18283,-35.21145 90.18283,-11.21145" style="fill:none;stroke:#000;stroke-width:3.6077"/><path id="path2899" d="m 593.69937,250 c 9,-5 18.30063,-7 27.30063,-6" style="fill:none;stroke:#000;stroke-width:3.6077"/><path id="path2901" d="m 505,116 c 51,5 115,13 119,45" style="fill:none;stroke:#000;stroke-width:3.6077"/><path id="path2903" d="m 629,123 c -7,-10 -24,-15 -32,-22" style="fill:none;stroke:#000;stroke-width:3.6077"/><path id="path2905" d="m 597,77 c 7,12 11,23 18,35" style="fill:none;stroke:#000;stroke-width:3.6077"/><path id="path2907" d="m 603,60 c 12,17 35.78855,17.211448 36,41.57711" style="fill:none;stroke:#000;stroke-width:3.6077"/><path id="path2909" d="m 634,85 c 2,-3 4,-5 6,-8" style="fill:none;stroke:#000;stroke-width:3.6077"/><path id="path2911" d="M 674,131 C 662,102 636,103 623,96" style="fill:none;stroke:#000;stroke-width:3.6077"/><path id="path2913" d="m 659,100 c 16,6 24,16 24,29" style="fill:none;stroke:#000;stroke-width:3.6077"/><path id="path2915" d="m 635,67 c 20,5 37,13 51,27" style="fill:none;stroke:#000;stroke-width:3.6077"/><path id="path2917" d="m 671,106 c 5,-13 28,-16 57,-17" style="fill:none;stroke:#000;stroke-width:3.6077"/><path id="path2919" d="m 719,155 c 9,-23 60,-13 89,9" style="fill:none;stroke:#000;stroke-width:3.6077"/><path id="path2921" d="m 625,180 c 16,-8 35.63386,-9.78871 54.63386,1.21129" style="fill:none;stroke:#000;stroke-width:3.6077"/><path id="path2923" d="m 695,140 c -15,15 -29,30 -10,47 35,34 37.46517,44.7623 40.41598,67.21107" style="fill:none;stroke:#000;stroke-width:3.6077"/><path id="path2925" d="m 782,162 c 9,13 9,28 3,42" style="fill:none;stroke:#000;stroke-width:3.6077"/><path id="path2927" d="M 759.2377,229.2705 C 769.2377,276.2705 748,301 734,311" style="fill:none;stroke:#000;stroke-width:3.6077"/><path id="path2929" d="m 641,293 c 30,7 52,8 57,-8" style="fill:none;stroke:#000;stroke-width:3.6077"/><path id="path2931" d="M 673.36614,297.78872 C 680.36614,298.78872 688,302 693,306" style="fill:none;stroke:#000;stroke-width:3.6077"/><path id="path2933" d="m 732,327 c 11,-15 0.63387,-23 -45.36613,-31" style="fill:none;stroke:#000;stroke-width:3.6077"/><path id="path2937" d="m 811.00274,228.01918 c 21,-2 37,6 50,23" style="fill:none;stroke:#000;stroke-width:3.6077"/><path id="path2939" d="m 841,199 c 6,2 16,5 28,8" style="fill:none;stroke:#000;stroke-width:3.6077"/><path id="path2943" d="m 962,422 c 7,3 11,8 11,16" style="fill:none;stroke:#000;stroke-width:3.6077"/><path id="path2945" d="m 941,328 c -4,5 -9,7 -16,8 -9,8 -15,17 -15,28 7,17 8,30 4,41" style="fill:none;stroke:#000;stroke-width:3.6077"/><path id="path2949" d="m 937,403 c 6,-9 10,-19 10,-34 1,-12 4,-22 9,-28" style="fill:none;stroke:#000;stroke-width:3.6077"/><path id="path2951" d="m 947,378 c 10,1 13,7 12,15 7,6 10,15 13,23" style="fill:none;stroke:#000;stroke-width:3.6077"/><path id="path2953" d="m 677,197 c -9,18 -25,35 -27,54 -16,35 -71,32 -84,59" style="fill:none;stroke:#000;stroke-width:3.6077"/><path id="path2955" d="m 771,522 c -38,14 -81.0405,30 -114.0405,61" style="fill:none;stroke:#000;stroke-width:3.6077"/><path id="path2957" d="m 663,571 c 12,-9 24,-18 36,-27" style="fill:none;stroke:#000;stroke-width:3.6077"/><path id="path2959" d="m 788,526 c -34,11 -70,25 -104,43" style="fill:none;stroke:#000;stroke-width:3.6077"/><path id="path2961" d="m 811,527 c -52,17 -110.30063,41 -161.30063,65" style="fill:none;stroke:#000;stroke-width:3.6077"/><path id="path2963" d="m 889,523 c -44,14 -223,77 -242,77 m -2.56075,-4 C 719.43925,565 801,541 877,519" style="fill:none;stroke:#000;stroke-width:3.6077"/><path id="path2965" d="M 891,544 C 845,561 695.86138,599.21962 659.86138,603.21962 738.86138,577.21962 813,557 890,533" style="fill:none;stroke:#000;stroke-width:3.6077"/><path id="path2983" d="m 669,552 c -12,52 -40,56 -72,47 -13,-10 -26,-10 -39,-10" style="fill:none;stroke:#000;stroke-width:3.6077"/><path id="path2985" d="M 644.78038,595.919 C 653.78038,580.919 657,569 659,554" style="fill:none;stroke:#000;stroke-width:3.6077"/><path id="path2987" d="m 635,601 c 9,-12 14,-28 16,-47" style="fill:none;stroke:#000;stroke-width:3.6077"/><path id="path2989" d="m 623,603 c 14,-12 19,-28 18,-49" style="fill:none;stroke:#000;stroke-width:3.6077"/><path id="path2991" d="m 616,602 c 10,-13 17,-28 18,-46" style="fill:none;stroke:#000;stroke-width:3.6077"/><path id="path2993" d="m 607,602 c 10,-13 18,-28 22,-45" style="fill:none;stroke:#000;stroke-width:3.6077"/><path id="path2995" d="m 600,600 23,-42" style="fill:none;stroke:#000;stroke-width:3.6077"/><path id="path2997" d="m 594,598 c 6,-13 11.30063,-30.081 19.30063,-40.081" style="fill:none;stroke:#000;stroke-width:3.6077"/><path id="path2999" d="m 590,594 c 5,-11 7,-24 11,-34" style="fill:none;stroke:#000;stroke-width:3.6077"/><path id="path3001" d="m 585,593 c 1,-12 4,-23 7,-34" style="fill:none;stroke:#000;stroke-width:3.6077"/><path id="path3003" d="m 579,591 4,-35" style="fill:none;stroke:#000;stroke-width:3.6077"/><path id="path3005" d="m 575,590 c -2,-9 -3,-19.82088 -3,-28.82088" style="fill:none;stroke:#000;stroke-width:3.6077"/><path id="path3007" d="m 567,589 c -4,-7 -4,-15.56075 -3,-22.56075" style="fill:none;stroke:#000;stroke-width:3.6077"/><path id="path3009" d="m 561,589 -4,-18" style="fill:none;stroke:#000;stroke-width:3.6077"/><path id="path3011" d="m 588,593 c -2,11 3,20 12,28" style="fill:none;stroke:#000;stroke-width:3.6077"/><path id="path3013" d="m 578,591 c -2,14 3.0405,28.52025 15.0405,37.52025" style="fill:none;stroke:#000;stroke-width:3.6077"/><path id="path3015" d="m 564,590 c 3,19 12,34 26,43" style="fill:none;stroke:#000;stroke-width:3.6077"/><path id="path3017" d="m 590,633 c 9,-10 17,-22 26,-30" style="fill:none;stroke:#000;stroke-width:3.6077"/><path id="path3019" d="m 869,551 c -28,29 -65,53 -111,72 -39,-3 -79.0405,-16.26013 -118.0405,-24.26013" style="fill:none;stroke:#000;stroke-width:3.6077"/><path id="path3021" d="M 675.69937,600.73987 C 707.69937,605.73987 740,611 772,617" style="fill:none;stroke:#000;stroke-width:3.6077"/><path id="path3023" d="m 786,610 c -29,-5 -58.56075,-10.26013 -86.56075,-14.26013" style="fill:none;stroke:#000;stroke-width:3.6077"/><path id="path3025" d="M 725.9595,589.73987 C 750.9595,593.73987 773,597 797,604" style="fill:none;stroke:#000;stroke-width:3.6077"/><path id="path3027" d="m 746,585 c 22,0 43,5 62,13" style="fill:none;stroke:#000;stroke-width:3.6077"/><path id="path3029" d="m 774,578 c 15,2 31,6 46,13" style="fill:none;stroke:#000;stroke-width:3.6077"/><path id="path3031" d="m 832,583 c -9,-1 -23.38163,0 -33.38163,0" style="fill:none;stroke:#000;stroke-width:3.6077"/><path id="path3033" d="m 843,574 c -20,4 -38,4 -53,0" style="fill:none;stroke:#000;stroke-width:3.6077"/><path id="path3035" d="m 804,570 c 9,2 28,0 47,-3 14,-4 27.78038,-9.52025 40.78038,-15.52025" style="fill:none;stroke:#000;stroke-width:3.6077"/><path id="path3037" d="m 593.21962,629.47975 c 34,24 80.838,41 139.838,46" style="fill:none;stroke:#000;stroke-width:3.6077"/><path id="path3039" d="m 597,624 c 41,31 95.17912,41.73987 157.17912,45.73987" style="fill:none;stroke:#000;stroke-width:3.6077"/><path id="path3041" d="m 601,621 c 66,39 123.82088,46.47975 175.82088,37.47975" style="fill:none;stroke:#000;stroke-width:3.6077"/><path id="path3043" d="m 604,616 c 65,36 127.60125,44.47975 184.60125,36.47975" style="fill:none;stroke:#000;stroke-width:3.6077"/><path id="path3045" d="m 608,611 c 70,34 130.919,43 190.919,36" style="fill:none;stroke:#000;stroke-width:3.6077"/><path id="path3047" d="m 613,607 c 63,31 129,41 198,34" style="fill:none;stroke:#000;stroke-width:3.6077"/><path id="path3049" d="m 624,603 c 67,32 132.78038,33 197.78038,31" style="fill:none;stroke:#000;stroke-width:3.6077"/><path id="path3051" d="m 758,623 c 7,9 32,9 71,3" style="fill:none;stroke:#000;stroke-width:3.6077"/><path id="path3053" d="m 770,618 c 6,9 35.30063,5.73987 70.30063,0.73987" style="fill:none;stroke:#000;stroke-width:3.6077"/><path id="path3055" d="m 788,610 c 13,4 46,-4 83,-14" style="fill:none;stroke:#000;stroke-width:3.6077"/><path id="path3057" d="m 777,615 c 9,6 43,1 80,-7" style="fill:none;stroke:#000;stroke-width:3.6077"/><path id="path3059" d="M 886.30063,578.47975 C 845.30063,596.47975 813,607 797,605" style="fill:none;stroke:#000;stroke-width:3.6077"/><path id="path3061" d="m 808,598 c 22,-1 52.0405,-13.78038 81.0405,-25.78038" style="fill:none;stroke:#000;stroke-width:3.6077"/><path id="path3063" d="m 822,590 c 22,-5 45,-14 68,-24" style="fill:none;stroke:#000;stroke-width:3.6077"/><path id="path3065" d="m 891,558 c -18,9 -36,16 -55,22" style="fill:none;stroke:#000;stroke-width:3.6077"/><path id="path3067" d="m 634,601 c 45,16 93,25.47975 140,28.47975" style="fill:none;stroke:#000;stroke-width:3.6077"/><path id="path3069" d="m 884,320 c -2,-30 -49,-77 -77,-68 23,-16 83,23 77,68 z" style="fill:#000;stroke-width:1.80385"/><path id="path3071" d="m 264,547 c -4,-28 9,-53 30,-74 23,-18 18,-44 28,-52 14,-27 51,-44 103,-53 16,-19 37,-29 66,-28 20,-17 38,-33 75,-33 2,9 5,18 9,26 -4,-5 -10,-11 -14,-18 -33,-3 -56,16 -69,32 -23,-5 -43,2 -62,24 -53,10 -91,26 -104,53 -7,24 -15,44 -30,52 -17,18 -32,44 -22,82 -3,-3 -6,-8 -10,-11 z" style="fill:#000;stroke-width:1.80385"/><path id="path3073" d="m 567,54 c -9,6 -5,21 -11,32 -48,3 -75,21 -66,54 11,13 13,22 6,28 -14,8 -19,29 -24,52 -10,13 -16,34 -16,56 -1,19 -29,30 -25,46 2,0 3,0 4,0 0,-7 4,-14 11,-20 9,-5 13,-17 16,-33 -1,-14 3,-28 14,-43 5,-19 7,-47 27,-56 12,-5 5,-18 -6,-34 -13,-32 22,-40 59,-45 15,-4 11,-28 21,-36 -3,-1 -7,-1 -10,-1 z" style="fill:#000;stroke-width:1.80385"/><path id="path3075" d="m 530,160 c -9,-3 -17,-2 -24,4" style="fill:none;stroke:#000;stroke-width:3.6077"/><path id="path3091" d="m 903,251 c -7,8 -15,17 -23,25 7,0 16,-5 28,-20 z" style="fill:#000;stroke-width:1.80385"/><path id="path3093" d="m 881,277 c -17,14 -34,29 -46,44 -9,12 -10,29 -7,48 2,14 4,28 7,41 4,0 7,0 11,1 16,16 56,13 68,19 7,10 13,17 17,15 7,7 12,15 15,23 -3,-10 3,-10 -18,-34 -9,-9 -30,-14 -63,-19 -23,-8 -28,-22 -30,-40 -4,-17 -6,-33 0,-50 13,-16 29,-32 46,-48 z" style="fill:#000;stroke-width:1.80385"/><path id="path3101" d="m 838,407 c 3,23 11,44 28,60 34,1 55,20 85,21 l -7,7 c -14,1 -27,-11 -40,-13 -11,-4 -33,-5 -43,-10 -15,-21 -24,-43 -23,-65 z" style="fill:#000;stroke-width:1.80385"/><path id="path3103" d="m 432,319 23,30" style="fill:none;stroke:#000;stroke-width:3.6077;stroke-dasharray:9.01924,12.6269"/></g><text xml:space="preserve" style="font-style:normal;font-variant:normal;font-weight:400;font-stretch:normal;font-size:188.829px;line-height:1.25;font-family:Garamond;-inkscape-font-specification:'Garamond, Normal';font-variant-ligatures:normal;font-variant-caps:normal;font-variant-numeric:normal;font-feature-settings:normal;text-align:start;letter-spacing:0;word-spacing:0;writing-mode:lr-tb;text-anchor:start;fill:#000;fill-opacity:1;stroke:none;stroke-width:1.00137" id="text2069" x="274.142" y="253.186"><tspan id="tspan2067" x="274.142" y="253.186" style="stroke-width:1.00137">Just use</tspan></text><g id="g2207" transform="matrix(0.56069988,0,0,0.562426,370.61757,130.76694)" style="stroke-width:1.78074"><path d="m 888.21066,247.62554 37.23005,-21.21649 v 33.09036 l -37.23005,17.44212 z" style="fill:#000;fill-opacity:1;fill-rule:evenodd;stroke:#fff;stroke-width:3.1384;stroke-linecap:round;stroke-linejoin:round;stroke-miterlimit:4;stroke-dasharray:none;stroke-opacity:1" id="path2087"/><path d="m 840.48641,206.02566 v 36.71654 l 47.72425,34.19933 v -29.31599 z" style="fill:#000;fill-opacity:1;fill-rule:evenodd;stroke:#fff;stroke-width:3.1384;stroke-linecap:round;stroke-linejoin:round;stroke-miterlimit:4;stroke-dasharray:none;stroke-opacity:1" id="path2089"/><path d="m 840.48641,206.02566 40.24081,-34.39839 44.71349,54.78178 -37.23005,21.21649 z" style="fill:#000;fill-opacity:1;fill-rule:evenodd;stroke:#fff;stroke-width:3.1384;stroke-linecap:round;stroke-linejoin:round;stroke-miterlimit:4;stroke-dasharray:none;stroke-opacity:1" id="path2091"/><path d="m 840.48641,242.7422 40.24081,-28.27896 44.71349,45.03617 -37.23005,17.44212 z" style="fill:#000;fill-opacity:1;fill-rule:evenodd;stroke:#fff;stroke-width:3.1384;stroke-linecap:round;stroke-linejoin:round;stroke-miterlimit:4;stroke-dasharray:none;stroke-opacity:1" id="path2093"/><path d="m 880.72722,171.62727 v 42.83597 l 44.71349,45.03617 v -33.09036 z" style="fill:#000;fill-opacity:1;fill-rule:evenodd;stroke:#fff;stroke-width:3.1384;stroke-linecap:round;stroke-linejoin:round;stroke-miterlimit:4;stroke-dasharray:none;stroke-opacity:1" id="path2095"/><path d="m 840.48641,206.02566 40.24081,-34.39839 v 42.83597 l -40.24081,28.27896 z" style="fill:#000;fill-opacity:1;fill-rule:evenodd;stroke:#fff;stroke-width:3.1384;stroke-linecap:round;stroke-linejoin:round;stroke-miterlimit:4;stroke-dasharray:none;stroke-opacity:1" id="path2097"/></g></svg>